<svg width="30" height="30" viewBox="0 0 30 30" fill="none" xmlns="http://www.w3.org/2000/svg">
<path d="M15 4.5C16.3789 4.5 17.7443 4.77159 19.0182 5.29926C20.2921 5.82694 21.4496 6.60036 22.4246 7.57538C23.3996 8.55039 24.1731 9.70791 24.7007 10.9818C25.2284 12.2557 25.5 13.6211 25.5 15C25.5 16.3789 25.2284 17.7443 24.7007 19.0182C24.1731 20.2921 23.3996 21.4496 22.4246 22.4246C21.4496 23.3996 20.2921 24.1731 19.0182 24.7007C17.7443 25.2284 16.3789 25.5 15 25.5V4.5ZM15 3C11.8174 3 8.76516 4.26428 6.51472 6.51472C4.26428 8.76516 3 11.8174 3 15C3 18.1826 4.26428 21.2348 6.51472 23.4853C8.76516 25.7357 11.8174 27 15 27C18.1826 27 21.2348 25.7357 23.4853 23.4853C25.7357 21.2348 27 18.1826 27 15C27 11.8174 25.7357 8.76516 23.4853 6.51472C21.2348 4.26428 18.1826 3 15 3Z" fill="#191A1B"/>
</svg>
